<svg width="15" height="15" viewBox="0 0 15 15" fill="none" xmlns="http://www.w3.org/2000/svg">
<path d="M5.33349 2.16667H3.83349C2.90006 2.16667 2.43301 2.16667 2.07649 2.34833C1.76288 2.50811 1.5081 2.76289 1.34831 3.0765C1.16666 3.43302 1.16666 3.90008 1.16666 4.8335V11.1668C1.16666 12.1003 1.16666 12.5668 1.34831 12.9233C1.5081 13.2368 1.76288 13.4921 2.07649 13.6518C2.43266 13.8333 2.89915 13.8333 3.83075 13.8333H10.1692C11.1008 13.8333 11.5667 13.8333 11.9228 13.6518C12.2364 13.4921 12.4921 13.2366 12.6518 12.923C12.8333 12.5668 12.8333 12.1008 12.8333 11.1693V9.66667M13.6667 5.5V1.33334M13.6667 1.33334H9.49999M13.6667 1.33334L7.83332 7.16667" stroke="black" stroke-width="2" stroke-linecap="round" stroke-linejoin="round"/>
</svg>
